<svg width="85" height="177" viewBox="0 0 85 177" fill="none" xmlns="http://www.w3.org/2000/svg">
<path d="M83.5 0.999988V176H34V39.25H1.5V0.999988H83.5Z" fill="#FFF6E3"/>
<path d="M83.5 0.999985H84.5V-1.52588e-05H83.5V0.999985ZM83.5 176V177H84.5V176H83.5ZM34 176H33V177H34V176ZM34 39.25H35V38.25H34V39.25ZM1.5 39.25H0.5V40.25H1.5V39.25ZM1.5 0.999985V-1.52588e-05H0.5V0.999985H1.5ZM82.5 0.999985V176H84.5V0.999985H82.5ZM83.5 175H34V177H83.5V175ZM35 176V39.25H33V176H35ZM34 38.25H1.5V40.25H34V38.25ZM2.5 39.25V0.999985H0.5V39.25H2.5ZM1.5 1.99998H83.5V-1.52588e-05H1.5V1.99998Z" fill="#ED2939"/>
</svg>
