<svg width="148" height="181" viewBox="0 0 148 181" fill="none" xmlns="http://www.w3.org/2000/svg">
<path d="M146.75 140.75V180H10.5V149L76 87.75C82.3333 81.75 86.5833 76.6667 88.75 72.5C90.9167 68.1667 92 63.8333 92 59.5C92 53.8333 90.0833 49.4167 86.25 46.25C82.4167 43.0833 76.8333 41.5 69.5 41.5C63 41.5 57 43 51.5 46C46.1667 48.8333 41.75 53 38.25 58.5L1.5 38C8.33333 26.6667 17.9167 17.75 30.25 11.25C42.5833 4.74999 57.1667 1.49999 74 1.49999C87.3333 1.49999 99.0833 3.66666 109.25 7.99999C119.583 12.3333 127.583 18.5833 133.25 26.75C139.083 34.75 142 44.0833 142 54.75C142 64.25 139.917 73.25 135.75 81.75C131.75 90.0833 123.917 99.5833 112.25 110.25L79.25 140.75H146.75Z" fill="#FFF6E3"/>
<path d="M146.75 140.75H147.75V139.75H146.75V140.75ZM146.75 180V181H147.75V180H146.75ZM10.5 180H9.5V181H10.5V180ZM10.5 149L9.81699 148.27L9.5 148.566V149H10.5ZM76 87.75L76.683 88.4804L76.6878 88.476L76 87.75ZM88.75 72.5L89.6372 72.9613L89.6409 72.9543L89.6444 72.9472L88.75 72.5ZM51.5 46L51.9692 46.8832L51.9789 46.8779L51.5 46ZM38.25 58.5L37.7628 59.3733L38.587 59.833L39.0937 59.0369L38.25 58.5ZM1.5 38L0.64362 37.4837L0.109546 38.3694L1.01284 38.8733L1.5 38ZM30.25 11.25L30.7162 12.1347L30.25 11.25ZM109.25 7.99999L108.858 8.91993L108.863 8.92219L109.25 7.99999ZM133.25 26.75L132.428 27.3201L132.435 27.3297L132.442 27.3392L133.25 26.75ZM135.75 81.75L134.852 81.3098L134.848 81.3173L135.75 81.75ZM112.25 110.25L111.575 109.512L111.571 109.516L112.25 110.25ZM79.25 140.75L78.5713 140.016L76.6947 141.75H79.25V140.75ZM145.75 140.75V180H147.75V140.75H145.75ZM146.75 179H10.5V181H146.75V179ZM11.5 180V149H9.5V180H11.5ZM11.183 149.73L76.683 88.4804L75.317 87.0196L9.81699 148.27L11.183 149.73ZM76.6878 88.476C83.045 82.4533 87.3925 77.278 89.6372 72.9613L87.8628 72.0387C85.7741 76.0553 81.6217 81.0467 75.3123 87.024L76.6878 88.476ZM89.6444 72.9472C91.8722 68.4916 93 64.0061 93 59.5H91C91 63.6606 89.9611 67.8417 87.8556 72.0528L89.6444 72.9472ZM93 59.5C93 53.5818 90.984 48.8636 86.8869 45.479L85.6131 47.021C89.1827 49.9697 91 54.0848 91 59.5H93ZM86.8869 45.479C82.8063 42.1081 76.9589 40.5 69.5 40.5V42.5C76.7078 42.5 82.027 44.0585 85.6131 47.021L86.8869 45.479ZM69.5 40.5C62.8392 40.5 56.6737 42.0389 51.0211 45.1221L51.9789 46.8779C57.3263 43.9611 63.1608 42.5 69.5 42.5V40.5ZM51.0308 45.1169C45.5328 48.0377 40.9915 52.3292 37.4063 57.9631L39.0937 59.0369C42.5085 53.6708 46.8005 49.6289 51.9692 46.8831L51.0308 45.1169ZM38.7372 57.6267L1.98716 37.1267L1.01284 38.8733L37.7628 59.3733L38.7372 57.6267ZM2.35638 38.5163C9.09053 27.3475 18.5351 18.5545 30.7162 12.1347L29.7838 10.3653C17.2982 16.9455 7.57614 25.9858 0.64362 37.4837L2.35638 38.5163ZM30.7162 12.1347C42.8789 5.72459 57.2957 2.49998 74 2.49998V0.499989C57.0376 0.499989 42.2877 3.7754 29.7838 10.3653L30.7162 12.1347ZM74 2.49998C87.2258 2.49998 98.838 4.64914 108.858 8.91991L109.642 7.08007C99.3287 2.68417 87.4409 0.499989 74 0.499989V2.49998ZM108.863 8.92219C119.044 13.1916 126.884 19.3291 132.428 27.3201L134.072 26.1799C128.283 17.8376 120.123 11.4751 109.637 7.0778L108.863 8.92219ZM132.442 27.3392C138.141 35.1546 141 44.2778 141 54.75H143C143 43.8889 140.026 34.3454 134.058 26.1608L132.442 27.3392ZM141 54.75C141 64.098 138.951 72.9474 134.852 81.3098L136.648 82.1902C140.882 73.5526 143 64.402 143 54.75H141ZM134.848 81.3173C130.93 89.4813 123.205 98.8791 111.575 109.512L112.925 110.988C124.628 100.288 132.57 90.6853 136.652 82.1827L134.848 81.3173ZM111.571 109.516L78.5713 140.016L79.9287 141.484L112.929 110.984L111.571 109.516ZM79.25 141.75H146.75V139.75H79.25V141.75Z" fill="#ED2939"/>
</svg>
