<svg width="145" height="138" viewBox="0 0 145 138" fill="none" xmlns="http://www.w3.org/2000/svg">
<circle cx="3.43216" cy="3.43216" r="3.43216" fill="#FFF6E3"/>
<circle cx="20.5928" cy="3.43216" r="3.43216" fill="#FFF6E3"/>
<circle cx="37.7539" cy="3.43216" r="3.43216" fill="#FFF6E3"/>
<circle cx="54.9146" cy="3.43216" r="3.43216" fill="#FFF6E3"/>
<circle cx="72.0752" cy="3.43216" r="3.43216" fill="#FFF6E3"/>
<circle cx="89.2359" cy="3.43216" r="3.43216" fill="#FFF6E3"/>
<circle cx="106.397" cy="3.43216" r="3.43216" fill="#FFF6E3"/>
<circle cx="123.558" cy="3.43216" r="3.43216" fill="#FFF6E3"/>
<circle cx="140.718" cy="3.43216" r="3.43216" fill="#FFF6E3"/>
<circle cx="3.43216" cy="22.0639" r="3.43216" fill="#FFF6E3"/>
<circle cx="20.5928" cy="22.0639" r="3.43216" fill="#FFF6E3"/>
<circle cx="37.7539" cy="22.0639" r="3.43216" fill="#FFF6E3"/>
<circle cx="54.9146" cy="22.0639" r="3.43216" fill="#FFF6E3"/>
<circle cx="72.0752" cy="22.0639" r="3.43216" fill="#FFF6E3"/>
<circle cx="89.2359" cy="22.0639" r="3.43216" fill="#FFF6E3"/>
<circle cx="106.397" cy="22.0639" r="3.43216" fill="#FFF6E3"/>
<circle cx="123.558" cy="22.0639" r="3.43216" fill="#FFF6E3"/>
<circle cx="140.718" cy="22.0639" r="3.43216" fill="#FFF6E3"/>
<circle cx="3.43216" cy="40.6956" r="3.43216" fill="#FFF6E3"/>
<circle cx="20.5928" cy="40.6956" r="3.43216" fill="#FFF6E3"/>
<circle cx="37.7539" cy="40.6956" r="3.43216" fill="#FFF6E3"/>
<circle cx="54.9146" cy="40.6956" r="3.43216" fill="#FFF6E3"/>
<circle cx="72.0752" cy="40.6956" r="3.43216" fill="#FFF6E3"/>
<circle cx="89.2359" cy="40.6956" r="3.43216" fill="#FFF6E3"/>
<circle cx="106.397" cy="40.6956" r="3.43216" fill="#FFF6E3"/>
<circle cx="123.558" cy="40.6956" r="3.43216" fill="#FFF6E3"/>
<circle cx="140.718" cy="40.6956" r="3.43216" fill="#FFF6E3"/>
<circle cx="3.43216" cy="59.3273" r="3.43216" fill="#FFF6E3"/>
<circle cx="20.5928" cy="59.3273" r="3.43216" fill="#FFF6E3"/>
<circle cx="37.7539" cy="59.3273" r="3.43216" fill="#FFF6E3"/>
<circle cx="54.9146" cy="59.3273" r="3.43216" fill="#FFF6E3"/>
<circle cx="72.0752" cy="59.3273" r="3.43216" fill="#FFF6E3"/>
<circle cx="89.2359" cy="59.3273" r="3.43216" fill="#FFF6E3"/>
<circle cx="106.397" cy="59.3273" r="3.43216" fill="#FFF6E3"/>
<circle cx="123.558" cy="59.3273" r="3.43216" fill="#FFF6E3"/>
<circle cx="140.718" cy="59.3273" r="3.43216" fill="#FFF6E3"/>
<circle cx="3.43216" cy="77.959" r="3.43216" fill="#FFF6E3"/>
<circle cx="20.5928" cy="77.959" r="3.43216" fill="#FFF6E3"/>
<circle cx="37.7539" cy="77.959" r="3.43216" fill="#FFF6E3"/>
<circle cx="54.9146" cy="77.959" r="3.43216" fill="#FFF6E3"/>
<circle cx="72.0752" cy="77.959" r="3.43216" fill="#FFF6E3"/>
<circle cx="89.2359" cy="77.959" r="3.43216" fill="#FFF6E3"/>
<circle cx="106.397" cy="77.959" r="3.43216" fill="#FFF6E3"/>
<circle cx="123.558" cy="77.959" r="3.43216" fill="#FFF6E3"/>
<circle cx="140.718" cy="77.959" r="3.43216" fill="#FFF6E3"/>
<circle cx="3.43216" cy="96.5907" r="3.43216" fill="#FFF6E3"/>
<circle cx="20.5928" cy="96.5907" r="3.43216" fill="#FFF6E3"/>
<circle cx="37.7539" cy="96.5907" r="3.43216" fill="#FFF6E3"/>
<circle cx="54.9146" cy="96.5907" r="3.43216" fill="#FFF6E3"/>
<circle cx="72.0752" cy="96.5907" r="3.43216" fill="#FFF6E3"/>
<circle cx="89.2359" cy="96.5907" r="3.43216" fill="#FFF6E3"/>
<circle cx="106.397" cy="96.5907" r="3.43216" fill="#FFF6E3"/>
<circle cx="123.558" cy="96.5907" r="3.43216" fill="#FFF6E3"/>
<circle cx="140.718" cy="96.5907" r="3.43216" fill="#FFF6E3"/>
<circle cx="3.43216" cy="115.222" r="3.43216" fill="#FFF6E3"/>
<circle cx="20.5928" cy="115.222" r="3.43216" fill="#FFF6E3"/>
<circle cx="37.7539" cy="115.222" r="3.43216" fill="#FFF6E3"/>
<circle cx="54.9146" cy="115.222" r="3.43216" fill="#FFF6E3"/>
<circle cx="72.0752" cy="115.222" r="3.43216" fill="#FFF6E3"/>
<circle cx="89.2359" cy="115.222" r="3.43216" fill="#FFF6E3"/>
<circle cx="106.397" cy="115.222" r="3.43216" fill="#FFF6E3"/>
<circle cx="123.558" cy="115.222" r="3.43216" fill="#FFF6E3"/>
<circle cx="140.718" cy="115.222" r="3.43216" fill="#FFF6E3"/>
<circle cx="3.43216" cy="133.854" r="3.43216" fill="#FFF6E3"/>
<circle cx="20.5928" cy="133.854" r="3.43216" fill="#FFF6E3"/>
<circle cx="37.7539" cy="133.854" r="3.43216" fill="#FFF6E3"/>
<circle cx="54.9146" cy="133.854" r="3.43216" fill="#FFF6E3"/>
<circle cx="72.0752" cy="133.854" r="3.43216" fill="#FFF6E3"/>
<circle cx="89.2359" cy="133.854" r="3.43216" fill="#FFF6E3"/>
<circle cx="106.397" cy="133.854" r="3.43216" fill="#FFF6E3"/>
<circle cx="123.558" cy="133.854" r="3.43216" fill="#FFF6E3"/>
<circle cx="140.718" cy="133.854" r="3.43216" fill="#FFF6E3"/>
</svg>
