<svg width="50" height="50" viewBox="0 0 50 50" fill="none" xmlns="http://www.w3.org/2000/svg">
<path d="M18.9286 18.0002C17.8713 18.0002 17 18.8715 17 19.9288V31.0717C17 32.129 17.8713 33.0003 18.9286 33.0003H30.0714C31.1287 33.0003 32 32.129 32 31.0717V19.9288C32 18.8715 31.1287 18.0002 30.0714 18.0002H18.9286ZM18.9286 19.286H30.0714C30.4387 19.286 30.7143 19.5616 30.7143 19.9288V24.8574H28.0826C27.7756 23.1587 26.2839 21.8574 24.5 21.8574C22.7161 21.8574 21.2244 23.1587 20.9174 24.8574H18.2857V19.9288C18.2857 19.5616 18.5613 19.286 18.9286 19.286ZM28.7857 20.5717C28.3123 20.5717 27.9286 20.9554 27.9286 21.4288C27.9286 21.9022 28.3123 22.286 28.7857 22.286C29.2591 22.286 29.6429 21.9022 29.6429 21.4288C29.6429 20.9554 29.2591 20.5717 28.7857 20.5717ZM24.5 23.1431C25.8094 23.1431 26.8571 24.1908 26.8571 25.5002C26.8571 26.8097 25.8094 27.8574 24.5 27.8574C23.1906 27.8574 22.1429 26.8097 22.1429 25.5002C22.1429 24.1908 23.1906 23.1431 24.5 23.1431ZM18.2857 26.1431H20.9174C21.2218 27.8449 22.7138 29.1431 24.5 29.1431C26.2862 29.1431 27.7782 27.8449 28.0826 26.1431H30.7143V31.0717C30.7143 31.439 30.4387 31.7145 30.0714 31.7145H18.9286C18.5613 31.7145 18.2857 31.439 18.2857 31.0717V26.1431Z" fill="#0030DA"/>
<circle cx="25" cy="25" r="24.5" stroke="#0030DA"/>
</svg>
