<svg width="237" height="50" viewBox="0 0 237 50" fill="none" xmlns="http://www.w3.org/2000/svg">
<path fill-rule="evenodd" clip-rule="evenodd" d="M237 0H-20V50H89.8996V18.4197H77V9H114.619V18.4197H101.779V50H128.032C126.201 49.1843 124.59 48.0972 123.2 46.7387C119.76 43.3388 118.04 38.519 118.04 32.2792V9H129.92V31.9192C129.92 38.639 132.579 41.9989 137.899 41.9989C141.618 41.9989 144.026 40.3326 145.126 37H142V26H145.819V9H157.519V26H165.566V9H198.505V18.1797H177.446V26H204.061V9H237V0ZM237 18.1797H215.941V26H235V37H215.941V50H237V18.1797ZM204.061 50V37H177.446V50H204.061ZM165.566 50V37H157.142C156.458 41.0058 154.844 44.2521 152.299 46.7387C150.924 48.0972 149.326 49.1843 147.505 50H165.566Z" fill="#0030DA"/>
</svg>
