<svg width="148" height="181" viewBox="0 0 148 181" fill="none" xmlns="http://www.w3.org/2000/svg">
<path d="M101.25 71C115.75 74 126.833 80 134.5 89C142.333 97.8333 146.25 108.583 146.25 121.25C146.25 131.583 143.417 141.167 137.75 150C132.25 158.833 123.75 166 112.25 171.5C100.917 176.833 86.8333 179.5 70 179.5C57.6667 179.5 45.4167 178 33.25 175C21.25 172 10.8333 167.75 2 162.25L20 125C26.8333 129.667 34.5 133.25 43 135.75C51.6667 138.25 60.1667 139.5 68.5 139.5C77 139.5 83.75 137.917 88.75 134.75C93.75 131.583 96.25 127.083 96.25 121.25C96.25 109.917 87.3333 104.25 69.5 104.25H48.75V73L80 39.25H11V0.999988H137.5V32L101.25 71Z" fill="#FFF6E3"/>
<path d="M101.25 71L100.518 70.3192L99.3089 71.6196L101.047 71.9793L101.25 71ZM134.5 89L133.739 89.6485L133.745 89.656L133.752 89.6635L134.5 89ZM137.75 150L136.908 149.46L136.901 149.471L137.75 150ZM112.25 171.5L112.676 172.405L112.681 172.402L112.25 171.5ZM33.25 175L33.0075 175.97L33.0106 175.971L33.25 175ZM2 162.25L1.09961 161.815L0.708663 162.624L1.47144 163.099L2 162.25ZM20 125L20.564 124.174L19.6049 123.519L19.0996 124.565L20 125ZM43 135.75L42.7178 136.709L42.7228 136.711L43 135.75ZM88.75 134.75L89.2851 135.595L88.75 134.75ZM48.75 104.25H47.75V105.25H48.75V104.25ZM48.75 73L48.0162 72.3206L47.75 72.6081V73H48.75ZM80 39.25L80.7338 39.9294L82.2888 38.25H80V39.25ZM11 39.25H10V40.25H11V39.25ZM11 0.999985V-1.52588e-05H10V0.999985H11ZM137.5 0.999985H138.5V-1.52588e-05H137.5V0.999985ZM137.5 32L138.232 32.6808L138.5 32.393V32H137.5ZM101.047 71.9793C115.386 74.9458 126.25 80.8567 133.739 89.6485L135.261 88.3515C127.417 79.1433 116.114 73.0542 101.453 70.0207L101.047 71.9793ZM133.752 89.6635C141.411 98.2999 145.25 108.808 145.25 121.25H147.25C147.25 108.358 143.256 97.3668 135.248 88.3365L133.752 89.6635ZM145.25 121.25C145.25 131.389 142.473 140.785 136.908 149.46L138.592 150.54C144.36 141.548 147.25 131.778 147.25 121.25H145.25ZM136.901 149.471C131.522 158.11 123.185 165.161 111.819 170.598L112.681 172.402C124.315 166.839 132.978 159.557 138.599 150.529L136.901 149.471ZM111.824 170.595C100.662 175.848 86.7342 178.5 70 178.5V180.5C86.9325 180.5 101.172 177.819 112.676 172.405L111.824 170.595ZM70 178.5C57.7486 178.5 45.579 177.01 33.4894 174.029L33.0106 175.971C45.2543 178.99 57.5847 180.5 70 180.5V178.5ZM33.4925 174.03C21.5751 171.05 11.2586 166.837 2.52856 161.401L1.47144 163.099C10.4081 168.663 20.9249 172.95 33.0075 175.97L33.4925 174.03ZM2.90039 162.685L20.9004 125.435L19.0996 124.565L1.09961 161.815L2.90039 162.685ZM19.436 125.826C26.3616 130.555 34.1246 134.182 42.7178 136.709L43.2822 134.791C34.8754 132.318 27.305 128.778 20.564 124.174L19.436 125.826ZM42.7228 136.711C51.4722 139.235 60.0655 140.5 68.5 140.5V138.5C60.2678 138.5 51.8611 137.265 43.2772 134.789L42.7228 136.711ZM68.5 140.5C77.111 140.5 84.0696 138.898 89.2851 135.595L88.215 133.905C83.4304 136.935 76.889 138.5 68.5 138.5V140.5ZM89.2851 135.595C94.5694 132.248 97.25 127.432 97.25 121.25H95.25C95.25 126.735 92.9306 130.919 88.215 133.905L89.2851 135.595ZM97.25 121.25C97.25 115.271 94.8703 110.688 90.0989 107.656C85.4043 104.673 78.4904 103.25 69.5 103.25V105.25C78.343 105.25 84.804 106.661 89.0261 109.344C93.1714 111.978 95.25 115.896 95.25 121.25H97.25ZM69.5 103.25H48.75V105.25H69.5V103.25ZM49.75 104.25V73H47.75V104.25H49.75ZM49.4838 73.6794L80.7338 39.9294L79.2662 38.5706L48.0162 72.3206L49.4838 73.6794ZM80 38.25H11V40.25H80V38.25ZM12 39.25V0.999985H10V39.25H12ZM11 1.99998H137.5V-1.52588e-05H11V1.99998ZM136.5 0.999985V32H138.5V0.999985H136.5ZM136.768 31.3192L100.518 70.3192L101.982 71.6808L138.232 32.6808L136.768 31.3192Z" fill="#ED2939"/>
</svg>
