<svg width="140" height="70" viewBox="0 0 140 70" fill="none" xmlns="http://www.w3.org/2000/svg">
<path fill-rule="evenodd" clip-rule="evenodd" d="M34.8441 7.6095C30.5819 10.8512 27.1524 15.4907 24.9471 20.9983C24.7762 21.4706 24.7132 22.1735 24.9021 22.0966C49.8155 12.2116 46.9993 59.2975 23.4896 53.1688C22.9227 60.7034 22.14 64.1522 20.3405 68.8421C20.2146 69.1826 19.8637 69.4682 19.6388 69.3803C19.5176 69.3367 19.4143 69.2391 19.3493 69.1069C19.2843 68.9746 19.2624 68.8174 19.2879 68.6664C20.0436 63.625 20.7274 58.5836 17.5424 52.8063C15.2121 48.6216 6.29587 50.1483 3.25481 45.9087C-5.1486 34.1125 3.90261 14.8915 16.9306 23.4037C15.572 17.7692 14.3934 8.98243 17.0925 0.700925C17.1465 0.508599 17.2289 0.329932 17.3355 0.173721C17.6414 -0.232666 18.3701 0.17372 18.793 0.382406C19.7917 0.766826 20.4395 1.59058 21.4292 1.98599C22.041 2.78778 20.9524 3.54563 21.1323 4.88561C21.942 3.58957 22.4639 1.92009 23.2107 0.49224C24.7597 1.04707 26.1181 2.204 27.0795 3.78727C26.3327 5.98396 25.352 7.97196 24.6952 10.3114C26.1348 8.27949 29.3288 4.60004 32.3878 3.07335C33.5665 3.68842 34.8801 7.00541 34.8441 7.6095Z" fill="#9FD2BE"/>
<path d="M117.394 53.5421C117.592 52.9051 117.709 52.334 117.916 51.653C118.042 51.2027 118.141 50.7414 118.249 50.2911C118.455 49.4124 118.644 48.5337 118.878 47.666C119.112 46.7984 120.102 42.8443 120.201 42.3501C120.3 41.8558 120.435 41.2518 120.489 41.087C120.831 39.9118 120.849 39.5823 121.155 38.2313C121.317 37.5394 121.668 35.9248 121.704 35.7271C121.784 35.2988 122.162 33.7282 122.414 32.9264C122.558 32.4651 122.684 32.0477 122.837 31.5974C122.956 31.2209 123.094 30.854 123.251 30.4991C123.449 30.0597 123.458 29.9828 124.106 29.9938C124.421 29.9711 124.738 29.9895 125.05 30.0487C125.221 30.2025 125.239 30.6858 125.302 31.0812C125.419 31.7951 125.473 32.509 125.581 33.2229C125.689 33.9368 125.671 34.3213 125.743 35.2109C125.743 35.7052 125.833 36.3093 125.869 36.7266C125.905 37.144 125.869 37.3637 125.869 37.6273C125.888 37.993 125.888 38.3598 125.869 38.7256C125.869 39.099 125.941 39.5274 125.95 39.9118C126.013 41.3177 126.04 41.9108 126.148 42.8993C126.202 43.4155 126.211 43.9427 126.238 44.4699C126.283 45.3376 126.238 45.9087 126.328 46.7764C126.418 47.6441 126.328 48.2591 126.427 49.2037C126.543 50.4876 126.6 51.7783 126.598 53.0699C126.598 54.6075 126.742 55.7608 126.778 57.2985C126.778 58.1332 126.841 58.9789 126.904 59.8136C126.904 60.209 126.904 60.6044 127.003 61.6259C127.057 62.3618 127.084 62.6254 127.084 62.878C127.084 63.1306 126.634 62.9988 126.184 62.9988H125.023H124.871C124.709 62.9219 124.718 62.7023 124.691 62.3398C124.637 61.2415 124.619 60.5825 124.583 59.4732C124.547 58.3638 124.493 56.7603 124.475 55.7168C124.457 54.6734 124.385 54.2011 124.358 53.004C124.358 52.6415 124.304 51.631 124.286 50.8073C124.286 48.9291 124.214 49.006 124.196 47.9736C124.196 47.1169 124.061 46.7654 124.016 45.0191C124.016 44.1074 123.908 43.3057 123.863 42.416C123.8 41.0211 123.764 40.8564 123.737 40.2193V39.3297C123.737 38.8025 123.737 38.7036 123.692 38.2313C123.708 38.0452 123.708 37.8574 123.692 37.6712C123.692 37.4296 123.692 37.3856 123.611 37.3637C123.53 37.3417 123.494 37.77 123.458 37.9458C123.206 39.2528 123.098 39.6592 122.729 41.2408C122.531 42.1414 122.351 42.7016 122.108 43.767C121.865 44.8323 121.73 45.3046 121.47 46.2602C121.371 46.6226 120.984 48.1932 120.894 48.5557C120.642 49.5552 120.615 49.8188 120.345 50.8183L120.174 51.5212C120.066 51.9166 119.625 53.8607 119.193 55.4423C119.022 56.1013 118.86 56.6834 118.653 57.3424C118.536 57.7048 118.114 57.8806 117.754 57.9465C117.395 58.0399 117.024 58.0399 116.665 57.9465C116.516 57.8817 116.383 57.7723 116.278 57.6284C116.172 57.4845 116.098 57.3106 116.062 57.1227C115.936 56.5626 115.738 56.1342 115.612 55.5741C115.45 54.8272 115.288 54.6624 114.938 53.2566C114.875 53.0149 114.605 51.9715 114.515 51.642C114.425 51.3125 114.263 50.7634 114.191 50.5437C114.047 50.1373 113.669 48.7424 113.183 47.1059C112.994 46.3261 112.742 45.4474 112.49 44.6896C112.238 43.9317 112.085 43.4265 111.879 42.8004L111.564 41.746C111.375 41.087 111.204 40.6477 110.988 39.9557C110.889 39.6372 110.502 38.3961 110.376 38.0995C110.376 38.5169 110.304 39.4615 110.295 39.758C110.232 40.7246 110.205 41.6801 110.142 42.6466C110.142 42.7785 110.142 42.9652 110.142 43.097C110.142 43.8438 110.025 44.5358 109.998 45.4804C109.998 46.2272 109.917 47.1169 109.881 47.8637C109.845 48.6106 109.881 49.0609 109.836 49.698C109.836 50.9061 109.674 52.1033 109.674 52.993C109.674 55.0359 109.539 55.8486 109.458 57.595C109.377 59.3414 109.35 60.1981 109.242 62.1201C109.262 62.3978 109.216 62.6765 109.107 62.9219C109.008 63.1196 108.559 63.0537 108.352 63.0537C107.907 63.0819 107.462 63.0635 107.02 62.9988C106.876 62.878 107.02 62.6803 107.02 62.197C107.02 61.2634 107.182 59.9015 107.218 59.0668C107.272 57.8696 107.371 56.6724 107.425 55.6619C107.479 54.6515 107.533 54.2231 107.551 53.3444C107.551 53.1358 107.551 52.5756 107.551 52.3669C107.551 51.8507 107.614 51.2686 107.641 50.7743C107.641 49.9835 107.704 49.676 107.74 48.4568C107.74 47.8747 107.803 47.3585 107.812 46.7325C107.911 45.2936 107.929 44.2063 107.974 42.8883C107.974 42.2842 108.055 41.6142 108.091 41.0211C108.145 40.1974 108.145 39.4944 108.19 38.6817C108.244 37.5833 108.271 37.0342 108.343 35.4855C108.406 34.6178 108.478 33.838 108.532 33.2888C108.631 32.2674 108.703 31.883 108.756 31.213C108.81 30.543 108.918 30.3563 109.152 30.1915C109.384 30.0531 109.643 29.9997 109.899 30.0378C110.051 30.0265 110.202 30.045 110.349 30.0927C110.718 30.2464 110.826 31.0263 110.961 31.4107C111.096 31.7951 111.078 31.9269 111.24 32.509C111.321 32.7836 111.402 33.168 111.528 33.6073C111.654 34.0467 111.771 34.4421 111.888 34.8155C112.004 35.189 112.139 35.9139 112.292 36.4191C112.445 36.9243 112.481 37.111 112.643 37.6053C112.805 38.0995 113.156 39.3187 113.183 39.4285C113.336 39.9118 113.525 40.5269 113.687 40.9662C114.299 42.9212 114.875 44.7884 114.938 44.9641C115.1 45.4584 115.172 45.8758 115.324 46.37C115.477 46.8643 115.657 47.4683 115.837 48.1164C116.152 49.1268 116.368 50.0165 116.737 51.3125C116.899 51.8178 117.214 52.96 117.394 53.5421Z" fill="#4A4640"/>
<path d="M69.5375 32.0915C69.5375 32.2782 69.5375 32.4759 69.4115 32.5089L68.6468 32.5638C67.7553 32.5519 66.8701 32.7457 66.0376 33.1349C65.599 33.322 65.1817 33.5767 64.7959 33.8928C64.4361 34.2261 64.1462 34.659 63.9502 35.1559C63.7018 35.6846 63.517 36.2543 63.4014 36.8473C63.1939 37.8199 63.0525 38.8118 62.9785 39.8128C62.9785 40.4499 62.8166 41.4603 62.7806 42.0974C62.7176 43.3056 62.6456 44.8213 62.6366 46.0404C62.6276 47.2596 62.6366 48.4458 62.6366 49.654C62.6366 50.6974 62.7086 51.5541 62.7716 52.5975C62.7716 53.1467 62.9155 54.4427 63.0055 55.3983C63.0649 56.3535 63.2985 57.2804 63.6893 58.1112C63.9101 58.5271 64.1834 58.8978 64.499 59.2095C64.8205 59.6085 65.2248 59.8932 65.6687 60.0333C66.427 60.2215 67.2064 60.2475 67.972 60.1102C68.3638 60.0478 68.7516 59.9524 69.1326 59.8246C69.4475 59.7148 69.5375 60.2749 69.6635 60.6374C69.7894 60.9998 69.7534 61.0328 69.8164 61.2634C69.8878 61.4762 69.942 61.6969 69.9784 61.9224C69.9784 62.0542 70.0683 62.1421 69.9784 62.208C69.3695 62.5662 68.7155 62.7964 68.0439 62.889C67.2019 63.0255 66.3488 63.0255 65.5067 62.889C65.1504 62.832 64.7984 62.7401 64.454 62.6144C63.4065 62.1412 62.5152 61.2615 61.9168 60.1102C61.5029 59.2804 61.1993 58.3759 61.0171 57.4302C60.8149 56.1478 60.6976 54.8475 60.6662 53.5421C60.6662 53.1467 60.6662 52.4438 60.6122 52.0703C60.6122 51.3234 60.5492 50.972 60.5312 50.3899C60.5312 50.0713 60.5312 49.8077 60.5312 49.4892C60.5312 49.1707 60.5312 48.7533 60.5312 48.3909C60.5312 48.2042 60.5312 46.6884 60.5312 45.8976C60.5312 45.2935 60.5762 44.6675 60.5312 44.0414C60.5312 43.657 60.5312 43.2946 60.5312 42.9431C60.5312 42.3061 60.6302 41.2736 60.6842 40.6366C60.7382 39.9995 60.7742 39.2527 60.8462 38.4399C60.9181 37.6271 61.0891 36.4519 61.197 35.8698C61.2958 35.4052 61.4221 34.95 61.5749 34.5078C61.7189 34.1124 61.9078 33.728 62.0788 33.3436C62.2766 32.9795 62.4929 32.631 62.7266 32.3002C63.0426 31.8217 63.4342 31.4257 63.8782 31.1359C65.4169 30.2338 67.1263 29.8544 68.8267 30.0376C69.1596 30.0376 69.2676 30.3122 69.3665 30.7295C69.4655 31.1469 69.4745 31.7071 69.5375 32.0915Z" fill="#4A4640"/>
<path d="M82.4576 61.2632C82.4576 60.9667 82.3046 59.6597 82.2596 59.3192C82.1067 58.2208 82.0437 57.4959 81.9178 56.3756C81.8188 55.5079 81.6838 54.6732 81.6028 53.7945C81.4859 52.5204 81.3239 51.1805 81.216 49.9064C81.108 48.6323 81.009 47.4351 80.8831 46.194C80.7301 44.6893 80.5682 43.1955 80.3882 41.6908C80.2803 40.7462 80.1903 39.9225 80.0733 38.9779C79.9564 38.0333 79.8484 37.0778 79.7494 36.1881C79.6504 35.2984 79.3985 33.9914 79.2906 33.0578C79.1826 32.1242 79.1196 31.2016 78.9847 30.5646C78.9847 30.4218 78.8227 30.1252 78.7147 30.1033C78.0827 30.0001 77.4443 29.967 76.8073 30.0044C76.2765 30.0044 76.1235 30.2021 76.0246 30.7293C75.9256 31.2565 75.8806 31.8277 75.7726 32.6185C75.7097 33.0468 75.6197 33.7168 75.5747 34.1122C75.4847 34.9909 75.4217 35.4742 75.2958 36.3089C75.2958 36.6494 75.1968 37.0558 75.1428 37.4073C75.0888 37.7587 74.9989 38.3408 74.9539 38.5935C74.8459 39.1756 74.585 40.889 74.495 41.6688C74.4051 42.4486 74.1801 43.9753 74.1621 44.1181C74.1082 44.6893 74.0632 45.2165 74.0002 45.8206C73.9692 46.4207 73.8939 47.0162 73.7753 47.5999C73.6133 48.193 73.4244 49.9943 73.3704 50.2798C73.2714 50.8619 73.1994 51.51 73.1005 52.0811C73.0015 52.6522 72.7676 54.2778 72.7136 54.6622C72.6146 55.4201 72.2097 58.1 72.1018 58.8249C71.9218 59.9233 71.7689 60.8898 71.6519 61.6586C71.5585 62.0711 71.5012 62.4945 71.481 62.9217C71.5979 63.0865 72.2007 63.0316 72.6596 63.0316C73.3704 63.0316 73.5593 63.0316 73.6853 62.5812C73.8562 61.7026 74.0182 60.6701 74.1711 59.418C74.2611 58.6602 74.3871 57.9572 74.477 57.2213C74.5488 56.631 74.654 56.0475 74.7919 55.475L76.2315 55.5738C77.5721 55.6617 79.6055 55.6617 79.6055 55.6617C79.6523 55.8287 79.6825 56.0021 79.6954 56.1779C79.6954 56.5953 79.7764 57.0127 79.8124 57.43C79.8484 57.8474 79.8934 58.3746 79.9474 58.8469C80.1003 60.3406 80.1903 61.3731 80.3432 62.5812C80.3432 62.9767 80.4422 63.0535 80.6761 63.0645C80.9101 63.0755 81.7198 63.0645 81.8818 63.0645C82.4216 63.0645 82.7095 63.1744 82.6285 62.5703C82.5745 62.2737 82.5116 61.6477 82.4576 61.2632ZM79.4255 53.0147C78.5258 53.0147 77.4551 52.9488 76.5014 52.8829C76.0266 52.8849 75.5521 52.8555 75.0798 52.795C75.0977 52.288 75.155 51.7841 75.2508 51.2903C75.4667 49.511 75.6827 48.0831 75.8806 46.4576C76.0965 44.6453 76.3215 42.8221 76.5644 40.9659C76.6904 40.0543 76.8253 38.923 76.9603 37.9345C76.9603 37.8356 77.2752 36.3858 77.4191 35.5291C77.4242 35.4701 77.4418 35.4137 77.4702 35.3655C77.4986 35.3173 77.5368 35.2791 77.5811 35.2545C77.6351 35.2545 77.707 35.2545 77.77 35.6389C77.878 36.4407 77.986 37.7148 78.0579 38.5276C78.1569 39.7138 78.4448 42.6463 78.5168 43.1516C78.5888 43.6568 78.7867 45.7986 78.8227 46.2379C79.4075 52.9049 79.3805 52.0591 79.4255 53.0147Z" fill="#4A4640"/>
<path d="M59.1996 61.263C59.1996 60.9665 59.0377 59.6595 58.9927 59.319C58.8397 58.2206 58.7767 57.4957 58.6508 56.3754C58.5518 55.5078 58.4169 54.673 58.3359 53.7944C58.2189 52.5203 58.057 51.1803 57.949 49.9063C57.841 48.6322 57.7421 47.435 57.6161 46.1939C57.4631 44.6892 57.3012 43.1954 57.1303 41.6907C57.0133 40.7461 56.9233 39.9224 56.8063 38.9778C56.6894 38.0333 56.5904 37.0777 56.4824 36.1881C56.3745 35.2984 56.1406 33.9914 56.0236 33.0578C55.9066 32.1242 55.8526 31.2016 55.7267 30.5646C55.7267 30.4218 55.5557 30.1252 55.4478 30.1033C54.8157 30.0001 54.1773 29.967 53.5404 30.0044C53.0185 30.0044 52.8566 30.2021 52.7576 30.7293C52.6586 31.2565 52.6226 31.8277 52.5057 32.6185C52.4427 33.0468 52.3527 33.7168 52.3077 34.1122C52.2178 34.9909 52.1548 35.4741 52.0288 36.3089C52.0288 36.6494 51.9299 37.0557 51.8759 37.4072C51.8219 37.7587 51.7319 38.3408 51.6869 38.5934C51.579 39.1755 51.318 40.8889 51.2281 41.6687C51.1381 42.4486 50.9132 43.9752 50.9042 44.118C50.8412 44.6892 50.7962 45.2164 50.7332 45.8204C50.6918 46.4105 50.6074 46.9949 50.4813 47.5668C50.3194 48.1599 50.1304 49.9612 50.0764 50.2467C49.9775 50.8289 49.9055 51.4769 49.8065 52.048C49.7075 52.6191 49.4736 54.2447 49.4196 54.6291C49.3207 55.3869 48.9158 58.0669 48.8078 58.7918C48.6279 59.8901 48.4749 60.8566 48.358 61.6255C48.2646 62.0379 48.2073 62.4613 48.187 62.8886C48.304 63.0533 48.9068 62.9984 49.3656 62.9984C50.0764 62.9984 50.3104 62.9984 50.3913 62.5481C50.5623 61.6694 50.7242 60.637 50.8772 59.3849C50.9672 58.627 51.0931 57.9241 51.1921 57.1882C51.2588 56.5977 51.3611 56.014 51.498 55.4419L52.9375 55.5407C54.2871 55.6286 56.3115 55.6286 56.3115 55.6286C56.3584 55.7956 56.3886 55.9689 56.4015 56.1448C56.4465 56.5622 56.4825 56.9795 56.5184 57.3969C56.5544 57.8143 56.5994 58.3415 56.6534 58.8137C56.8153 60.3075 56.8963 61.3399 57.0493 62.5481C57.0943 62.9435 57.1482 63.0204 57.3822 63.0313C57.6161 63.0423 58.4259 63.0313 58.5878 63.0313C59.1276 63.0313 59.4155 63.1412 59.3346 62.5371C59.3076 62.2735 59.2446 61.6474 59.1996 61.263ZM56.1585 53.0145C55.2588 53.0145 54.1882 52.9486 53.2345 52.8827C52.7626 52.885 52.2911 52.8556 51.8219 52.7949C51.8282 52.2874 51.8826 51.7824 51.9838 51.2901C52.1998 49.5108 52.4157 48.083 52.6136 46.4575C52.8296 44.6452 53.0545 42.822 53.2974 40.9658C53.4234 40.0542 53.5584 38.9229 53.7023 37.9344C53.7023 37.8356 54.0082 36.3858 54.1522 35.5291C54.1572 35.47 54.1748 35.4136 54.2032 35.3655C54.2316 35.3173 54.2699 35.279 54.3141 35.2545C54.3771 35.2545 54.4491 35.2545 54.5031 35.6389C54.611 36.4407 54.719 37.7147 54.791 38.5275C54.8899 39.7137 55.1779 42.6463 55.2498 43.1515C55.3218 43.6567 55.5197 45.7985 55.5647 46.2378C56.1406 52.9047 56.1136 52.059 56.1585 53.0145Z" fill="#4A4640"/>
<path d="M134.407 42.9871C134.704 41.8887 134.902 41.3066 135.082 40.6146C135.334 39.714 135.415 39.3735 135.667 38.418C135.964 37.3196 136.117 36.8913 136.252 36.2213C136.432 35.4085 136.756 34.3101 136.873 33.7829C137.053 32.9702 137.34 31.8498 137.421 31.5862C137.522 31.0562 137.676 30.5434 137.88 30.0595C137.88 29.9936 137.97 29.9607 138.294 29.9607H139.833C140.13 29.9607 139.968 30.2133 139.833 31.059C139.698 31.9048 139.446 32.7066 139.059 34.3541C138.672 36.0016 138.501 36.5508 138.159 38.0225C137.709 39.703 137.547 40.8343 137.116 42.5367C136.684 44.2392 136.36 45.5242 136.018 46.8093C136.004 47.0727 136.004 47.3368 136.018 47.6001C136.018 48.8083 136.018 48.8083 136.018 50.0165C136.018 50.6096 136.018 50.9061 136.018 51.4883C136.018 51.653 136.018 52.2461 136.018 52.4109C135.99 53.0071 135.99 53.6049 136.018 54.2012C136.072 55.1018 136.018 55.629 136.117 57.1667C136.216 58.7044 136.288 60.7253 136.297 62.2411C136.297 62.8122 136.405 63.0648 136.081 63.0429H134.821C134.586 63.0775 134.348 63.0551 134.119 62.977C134.049 62.6174 134.019 62.248 134.03 61.8786C133.958 60.3519 133.94 58.8362 133.877 57.3424C133.877 56.5297 133.877 56.4967 133.814 55.2446C133.814 54.5417 133.769 53.7179 133.742 53.0479C133.742 51.7079 133.625 50.983 133.598 49.643C133.598 48.9072 133.598 48.6655 133.517 48.0065C133.517 48.0065 133.166 46.9082 132.914 46.3041C132.437 45.1508 132.356 44.8762 132.014 43.9646C131.672 43.053 131.168 42.0315 130.79 41.065L130.566 40.4169C130.377 39.9007 130.206 39.3186 130.035 38.8463C129.918 38.5058 129.792 38.2312 129.63 37.8578C129.531 37.6491 129.522 37.4953 129.45 37.3196C129.378 37.1439 129.189 36.7924 129.099 36.5068C128.613 35.057 128.559 34.7055 128.199 33.6731C127.856 32.7987 127.555 31.9002 127.3 30.9822C127.192 30.5868 126.985 30.1584 127.399 30.0815C127.851 30.0376 128.305 30.0376 128.757 30.0815C129.252 30.0815 129.468 29.9936 129.594 30.3561C129.864 31.1469 130.134 31.8059 130.431 32.6187C130.53 32.8933 130.844 33.717 130.925 33.9477C130.993 34.1622 131.071 34.3713 131.159 34.5737C131.217 34.7192 131.265 34.8697 131.303 35.0241C131.377 35.4451 131.518 35.8443 131.717 36.1993C131.847 36.4749 131.962 36.7611 132.059 37.056C132.41 38.0335 132.734 39.0111 133.112 39.9666C133.47 41.018 133.904 42.0288 134.407 42.9871Z" fill="#4A4640"/>
<path d="M95.1166 50.895C95.1166 50.258 95.2336 47.9295 95.2336 47.7099C95.2336 47.0509 95.1256 46.4687 95.0896 45.7548C95.0266 44.4039 95.0086 42.987 94.8737 41.8887C94.7307 40.8746 94.5232 39.8758 94.2529 38.9012C94.1719 38.6156 94.1089 38.2861 94.0369 37.9896C93.8719 37.1582 93.6114 36.3595 93.2632 35.6172C92.8827 34.8498 92.4588 34.1158 91.9946 33.4205C91.4091 32.4983 90.6621 31.7478 89.8082 31.2238C89.4017 30.9354 88.9776 30.6857 88.5396 30.4769C88.198 30.2875 87.8383 30.151 87.469 30.0706C87.1713 30.0149 86.8704 29.9892 86.5692 29.9937C85.9574 29.9937 85.5525 29.9937 85.2197 30.433C84.8868 30.8723 84.8778 31.8608 84.8868 32.7615C84.8868 33.3656 84.8868 33.9916 84.8868 34.398C84.8868 35.1998 84.8868 38.0115 84.8868 38.374C84.8328 40.7903 84.8868 42.339 84.8868 43.5801C84.8868 44.0194 84.8868 45.3374 84.8868 45.5571C84.9407 46.8971 84.8868 47.4463 84.8868 48.8521C84.8868 49.599 84.8868 50.6754 84.8868 51.4222C84.8868 51.8506 84.8868 54.6514 84.8868 54.7173C84.8868 55.8156 84.8868 56.7382 84.8868 57.8805C84.8868 58.4296 84.8868 59.7586 84.8868 60.2089C84.8542 60.86 84.8542 61.5129 84.8868 62.164C84.9019 62.413 84.9954 62.6453 85.1477 62.812C85.4653 63.0033 85.8221 63.0759 86.1734 63.0207C86.6808 63.0475 87.1892 63.0255 87.6939 62.9548C88.2734 62.8321 88.8326 62.5947 89.3494 62.2518C89.6373 62.0871 90.2491 61.6258 90.582 61.3732C91.0854 60.9968 91.5584 60.5628 91.9946 60.0771C92.6075 59.3712 93.1132 58.5382 93.4881 57.6169C93.9759 56.5421 94.3364 55.3884 94.5588 54.1901C94.7948 53.1052 94.981 52.0052 95.1166 50.895ZM93.0652 46.9191C93.0652 47.6659 93.0652 48.2041 93.0652 49.4452C93.0283 50.6533 92.9049 51.855 92.6963 53.0368C92.5826 53.9076 92.3769 54.7567 92.0845 55.563C91.8054 56.2573 91.448 56.9006 91.0229 57.4741C90.5191 58.2911 89.874 58.9624 89.1334 59.4401C88.5422 59.8443 87.918 60.1719 87.271 60.4176C87.0821 60.4945 87.0551 60.4176 87.0551 60.154C87.0551 59.3413 87.1091 58.1111 87.0551 57.4631C87.0011 56.8151 87.0551 55.9035 87.0551 55.2664C87.0551 54.4097 87.0551 53.5091 87.0551 52.6634C87.0551 51.6199 87.0551 50.7962 87.0551 49.7637C87.0551 48.962 87.0551 47.9076 87.0551 47.1058C87.0551 46.1063 87.0551 45.634 87.0551 44.6345C87.0551 44.2501 87.0551 42.9321 87.0011 42.5587C87.0011 41.2406 87.0011 41.0539 87.0011 39.9556C87.0011 39.055 87.0011 38.5717 87.0011 37.5502C87.0011 37.1878 87.0731 36.1224 87.0731 35.7599C87.0731 34.9252 87.1451 32.6956 87.1451 32.6956C87.995 32.8494 88.808 33.224 89.5293 33.7939C90.2691 34.3657 90.8861 35.1452 91.3288 36.0675C91.4645 36.2948 91.582 36.5376 91.6797 36.7924C91.9295 37.3694 92.1372 37.9721 92.3005 38.5937C92.5074 39.3735 92.6154 40.1423 92.7593 40.9331C92.8542 41.4368 92.9263 41.9464 92.9752 42.4598C93.0742 43.4263 93.0742 43.9755 93.1462 45.1068C93.0112 45.1947 93.0652 46.1392 93.0652 46.9191Z" fill="#4A4640"/>
<path d="M99.732 60.11C99.9233 60.1655 100.121 60.1841 100.317 60.1649C101.174 60.2331 102.033 60.2331 102.89 60.1649C103.467 60.0934 104.049 60.0934 104.626 60.1649C104.923 60.4944 104.779 60.4944 104.797 61.3292C104.797 61.472 104.797 62.2847 104.797 62.4275C104.797 62.5703 104.797 62.9877 104.599 62.9767C104.402 62.9657 103.7 62.8998 103.412 62.9218C102.629 62.9218 101.441 62.9218 100.947 62.9218C100.74 62.9218 99.8939 62.9218 99.687 62.9218C99.0118 62.9651 98.3349 62.9431 97.6626 62.8559C97.5007 62.6032 97.6626 62.5044 97.5366 62.1969C97.4696 61.1514 97.4696 60.1011 97.5366 59.0556C97.5366 58.7261 97.5366 54.0362 97.4737 52.8499C97.4737 52.7401 97.4737 52.6742 97.4737 52.6303V52.5095C97.4737 52.4106 97.4737 52.3777 97.4737 52.2239C97.5456 51.2134 97.4737 48.7971 97.4737 48.5444C97.5366 47.9294 97.5726 44.9199 97.5816 44.3488C97.5906 43.7776 97.5816 40.1531 97.5816 39.6698C97.5261 38.5725 97.5261 37.4721 97.5816 36.3748C97.5816 36.0672 97.5186 33.563 97.4917 33.0797C97.4448 32.466 97.4448 31.8483 97.4917 31.2345C97.4917 30.8611 97.4197 30.279 97.6626 30.1362C97.9055 29.9934 98.1934 29.8836 98.8502 29.9385C98.9132 29.9385 100.515 29.9385 100.569 29.9385C101.333 29.8836 102.683 29.9385 103.061 29.9385C103.61 29.9385 104.518 29.9385 105.058 29.9385C105.346 29.9385 105.265 30.6853 105.238 31.1027C105.238 31.2565 105.238 32.5086 105.148 32.5855C104.905 32.6419 104.654 32.6419 104.411 32.5855C104.006 32.5855 103.088 32.5855 102.782 32.5306C101.936 32.4807 101.089 32.4991 100.245 32.5855C99.8939 32.5855 99.8219 32.5855 99.8579 33.0688C99.8939 33.552 99.8579 33.7387 99.8579 34.1671C99.8579 34.4087 99.8579 35.0238 99.9119 35.3423C99.9119 35.9135 99.9119 37.0008 99.9119 37.6379C99.9119 38.2749 100.002 40.4606 100.038 41.2295C100.038 41.6908 100.038 42.5145 100.038 42.9758C100.038 43.0747 100.038 43.1845 100.038 43.2834C100.038 43.6678 100.038 43.6678 100.398 43.6788C100.758 43.6897 102.935 43.7776 103.43 43.6788C103.557 43.649 103.687 43.6501 103.814 43.6822C103.941 43.7142 104.061 43.7765 104.168 43.8655C104.285 44.0632 104.168 44.5245 104.249 45.4471C104.249 45.6228 104.249 46.3587 104.141 46.4356C103.673 46.466 103.205 46.466 102.737 46.4356C102.251 46.4356 101.666 46.4356 101.181 46.3807C100.847 46.4392 100.51 46.4686 100.173 46.4686C99.9839 46.4686 99.8939 46.5345 99.9119 46.7651C99.9119 47.4022 99.8579 48.3797 99.9119 49.0277C99.9119 49.3023 99.9119 55.4311 99.9119 55.9802C99.9119 57.0017 99.9119 58.0122 99.9119 59.0336C99.7874 59.3717 99.7259 59.7394 99.732 60.11Z" fill="#4A4640"/>
<path d="M50.904 18.9221C50.904 18.7353 50.904 17.3734 50.904 17.1867C50.904 17 50.949 15.1218 50.904 14.8582C50.8905 14.5509 50.8905 14.2429 50.904 13.9356C50.904 13.5182 50.832 11.3105 50.904 11.1458C50.904 10.5637 50.841 8.88319 50.85 8.61959C50.859 8.35599 50.85 8.07042 50.85 7.78485C50.85 7.49928 50.85 7.15879 50.94 7.00502C51.0025 6.9202 51.0837 6.85918 51.1739 6.82929C51.496 6.72239 51.8305 6.68156 52.1636 6.70847C52.5942 6.70551 53.0172 6.84602 53.3872 7.11486C53.7975 7.42624 54.1352 7.86121 54.3679 8.37796C54.647 9.07745 54.7741 9.85283 54.7368 10.6296C54.7036 11.27 54.5529 11.893 54.2959 12.4528C54.1566 12.864 53.9517 13.2374 53.6931 13.5512C53.6256 13.6471 53.543 13.7256 53.4502 13.7818L53.6751 13.9575C53.9556 14.2124 54.2041 14.5158 54.4129 14.8582C54.7502 15.4036 54.9838 16.034 55.0967 16.7034C55.2359 17.375 55.3084 18.0646 55.3126 18.7573C55.3172 19.497 55.1686 20.2262 54.8808 20.8771C54.7274 21.1758 54.5396 21.4459 54.3229 21.6789C54.1656 21.8509 53.9937 22.0018 53.8101 22.1292C53.6225 22.2621 53.4233 22.369 53.2163 22.4478C52.9459 22.5525 52.663 22.6008 52.3795 22.5905H51.2819C51.2189 22.5905 50.895 22.5905 50.877 22.261C50.877 22.1841 50.877 21.3933 50.877 21.2945C50.877 21.1956 50.904 19.0539 50.904 18.9221ZM51.9297 21.2176C51.9926 21.2176 52.5415 21.2176 52.6045 21.2176C52.9915 21.1331 53.347 20.9026 53.6211 20.5586C53.9105 20.1566 54.0591 19.6321 54.035 19.0978C54.035 18.8342 54.035 18.4388 54.035 18.1752C54.0238 17.5769 53.9263 16.9858 53.7471 16.4288C53.6254 16.0144 53.4286 15.639 53.1713 15.3305L52.8114 14.8692C52.7621 14.8092 52.7041 14.7608 52.6404 14.7264C52.5612 14.6832 52.4754 14.6607 52.3885 14.6605H51.8667C51.8667 14.8472 51.8667 15.0559 51.8667 15.2206C51.8667 15.8687 51.8127 16.4618 51.8667 17.1098C51.9207 17.7578 51.8667 18.2081 51.8667 18.8012C51.9117 19.5921 51.8667 20.3609 51.9297 21.2176ZM51.9297 13.4194C52.0695 13.3896 52.2056 13.3379 52.3345 13.2656C52.7908 12.896 53.1328 12.3509 53.3062 11.7169C53.4534 11.3243 53.5272 10.8966 53.5222 10.4648C53.5401 9.94903 53.4632 9.43489 53.2972 8.96008C53.1009 8.60306 52.8176 8.3303 52.4875 8.18025C52.2446 8.03747 51.8757 8.18025 51.8667 8.49877C51.8577 8.81729 51.8667 9.39942 51.8667 9.72892C51.8667 10.0584 51.8667 10.5856 51.8667 10.9481C51.8667 11.4863 51.8667 12.1782 51.8667 12.9031C51.9207 13.0569 51.8937 13.1887 51.9027 13.4194H51.9297Z" fill="#4A4640"/>
<path d="M57.5803 21.1958C57.6728 21.2119 57.7667 21.2119 57.8592 21.1958C58.2725 21.2338 58.6875 21.2338 59.1008 21.1958C59.3788 21.1573 59.6595 21.1573 59.9375 21.1958C60.0815 21.3496 60.0095 21.3496 60.0185 21.756C60.0185 21.8219 60.0185 22.2173 60.0185 22.2942C60.0185 22.371 60.0185 22.5687 59.9195 22.5578C59.8206 22.5468 59.4877 22.5578 59.3527 22.5578C58.9748 22.5578 58.399 22.5578 58.1651 22.5578C57.9311 22.5578 57.6522 22.5578 57.5533 22.5578C57.2297 22.5849 56.9051 22.5849 56.5816 22.5578C56.5006 22.4369 56.5816 22.382 56.5186 22.2392C56.4873 21.7347 56.4873 21.228 56.5186 20.7235C56.5186 20.5697 56.5186 18.3071 56.5186 17.736C56.5246 17.6997 56.5246 17.6624 56.5186 17.6262C56.5186 17.6262 56.5186 17.5602 56.5186 17.4943C56.5186 17.0001 56.5186 15.8358 56.5186 15.715C56.5186 15.4185 56.5636 13.9686 56.5726 13.694C56.5816 13.4195 56.5726 11.6731 56.5726 11.4424C56.5484 10.9229 56.5484 10.4022 56.5726 9.88275C56.5726 9.72898 56.5726 8.53177 56.5726 8.30112C56.5494 8.00524 56.5494 7.70733 56.5726 7.41145C56.5726 7.22473 56.5726 6.95014 56.6535 6.87326C56.7345 6.79637 56.9055 6.74145 57.2204 6.7744H58.0481C58.417 6.7744 59.0648 6.7744 59.2537 6.7744C59.4427 6.7744 59.9555 6.7744 60.2164 6.7744C60.4774 6.7744 60.3154 7.13686 60.3064 7.33457C60.2974 7.53227 60.3064 8.01555 60.3064 8.0485C60.3064 8.08145 60.0545 8.0485 59.9465 8.0485C59.8386 8.0485 59.3077 8.0485 59.1638 8.0485C58.7565 8.01082 58.3474 8.01082 57.9401 8.0485C57.7692 8.0485 57.7422 8.0485 57.7512 8.27915C57.7602 8.5098 57.7512 8.59767 57.7512 8.80636C57.7512 9.01505 57.7512 9.22374 57.7512 9.3775C57.7512 9.53127 57.7512 10.1793 57.7512 10.4759C57.7512 10.7724 57.7512 11.8378 57.8142 12.2003C57.8772 12.5627 57.8142 12.8263 57.8142 13.046C57.7277 13.069 57.6473 13.1181 57.5803 13.1888C57.5803 13.3755 57.5803 13.3755 57.7602 13.3865C57.9401 13.3975 58.9838 13.3865 59.2177 13.3865C59.3425 13.3572 59.4717 13.3888 59.5776 13.4744C59.6316 13.5732 59.5776 13.7929 59.5776 14.2322C59.5776 14.3201 59.5776 14.6716 59.5237 14.7155C59.4697 14.7594 59.0198 14.7155 58.8489 14.7155C58.6001 14.7319 58.3508 14.7319 58.1021 14.7155C57.9405 14.7327 57.7779 14.7327 57.6162 14.7155C57.5263 14.7155 57.4813 14.7155 57.4903 14.8693C57.4903 15.1768 57.4903 15.6381 57.4903 15.9676C57.4903 16.0994 57.4903 19.054 57.4903 19.2627C57.4903 19.746 57.4903 20.2402 57.4903 20.7235C57.5026 20.8852 57.5329 21.0441 57.5803 21.1958Z" fill="#4A4640"/>
<path d="M62.2765 21.1958C62.369 21.2119 62.4629 21.2119 62.5554 21.1958C62.9687 21.2338 63.3837 21.2338 63.797 21.1958C64.075 21.1573 64.3557 21.1573 64.6338 21.1958C64.7777 21.3496 64.7057 21.3496 64.7147 21.756C64.7147 21.8219 64.7147 22.2173 64.7147 22.2942C64.7147 22.371 64.7147 22.5687 64.6158 22.5578C64.5168 22.5468 64.1839 22.5578 64.0489 22.5578C63.6711 22.5578 63.0952 22.5578 62.8523 22.5578C62.7533 22.5578 62.3485 22.5578 62.2495 22.5578C61.926 22.5849 61.6013 22.5849 61.2778 22.5578C61.1968 22.4369 61.2778 22.382 61.2148 22.2392C61.179 21.7349 61.179 21.2278 61.2148 20.7235C61.2148 20.5697 61.2148 18.3071 61.2148 17.736C61.2115 17.6995 61.2115 17.6627 61.2148 17.6262C61.2148 17.6262 61.2148 17.5602 61.2148 17.4943C61.2148 17.0001 61.2148 15.8358 61.2148 15.715C61.2148 15.4185 61.2598 13.9686 61.2688 13.694C61.2778 13.4195 61.2688 11.6731 61.2688 11.4424C61.24 10.9231 61.24 10.402 61.2688 9.88275C61.2688 9.72898 61.2688 8.53177 61.2688 8.30112C61.2453 8.00526 61.2453 7.70731 61.2688 7.41145C61.2688 7.22473 61.2688 6.95014 61.3498 6.87326C61.4307 6.79637 61.6107 6.74145 61.9256 6.7744H62.7533C63.1222 6.7744 63.77 6.7744 63.95 6.7744C64.1299 6.7744 64.6608 6.7744 64.9217 6.7744C65.1826 6.7744 65.0206 7.13686 65.0027 7.33457C64.9847 7.53227 65.0027 8.01555 65.0027 8.0485C65.0027 8.08145 64.7507 8.0485 64.6428 8.0485C64.5348 8.0485 64.004 8.0485 63.851 8.0485C63.4467 8.01108 63.0407 8.01108 62.6364 8.0485C62.4654 8.0485 62.4294 8.0485 62.4474 8.27915C62.4654 8.5098 62.4474 8.59767 62.4474 8.80636C62.4474 9.01505 62.4474 9.22374 62.4474 9.3775C62.4474 9.53127 62.4474 10.1793 62.4474 10.4759C62.4474 10.7724 62.4474 11.8378 62.5104 12.2003C62.5734 12.5627 62.5104 12.8263 62.5104 13.046C62.5104 13.046 62.5104 13.1449 62.5104 13.1888C62.5104 13.2327 62.5104 13.3755 62.6814 13.3865C62.8523 13.3975 63.914 13.3865 64.1479 13.3865C64.2082 13.371 64.2705 13.3708 64.3308 13.386C64.3912 13.4011 64.4484 13.4312 64.4988 13.4744C64.5618 13.5732 64.4988 13.7929 64.5438 14.2322C64.5438 14.3201 64.5438 14.6716 64.4898 14.7155C64.4358 14.7594 63.986 14.7155 63.815 14.7155C63.5633 14.732 63.311 14.732 63.0592 14.7155C62.9006 14.7327 62.741 14.7327 62.5824 14.7155C62.4834 14.7155 62.4474 14.7155 62.4474 14.8693C62.4474 15.1768 62.4474 15.6381 62.4474 15.9676C62.4474 16.0994 62.4474 19.054 62.4474 19.2627C62.4474 19.746 62.4474 20.2402 62.4474 20.7235C62.363 20.8639 62.3046 21.0251 62.2765 21.1958Z" fill="#4A4640"/>
<path d="M79.0383 6.68724H79.2992C79.6773 6.70783 80.0426 6.8603 80.3519 7.12658C80.6477 7.34839 80.9045 7.63957 81.1076 7.98329C81.227 8.19608 81.3323 8.42012 81.4225 8.65328C81.5286 8.9285 81.6217 9.21086 81.7014 9.49901C81.7014 9.49901 81.7734 9.79556 81.7824 9.80655V9.96031C81.8634 10.3667 81.9804 11.3662 82.0163 11.7836C82.0883 12.6293 82.0973 13.3432 82.1063 13.7716V14.1011C82.1063 14.3317 82.1063 15.5619 82.1063 15.7266V15.8365C82.1063 16.144 82.1063 16.9348 82.1063 17.5059C82.1063 17.7146 81.9714 18.769 81.9534 18.8569V18.9338C81.857 19.5182 81.7029 20.0862 81.4945 20.6252C81.2442 21.2328 80.8729 21.754 80.4148 22.141C80.017 22.4399 79.5594 22.5995 79.0922 22.6023C78.8435 22.605 78.5954 22.568 78.3545 22.4924C77.994 22.3794 77.6589 22.1692 77.3738 21.8774C77.1391 21.6403 76.941 21.3538 76.7889 21.0316C76.5623 20.5095 76.3785 19.9613 76.2401 19.3951V19.2084C76.2401 19.0766 76.1861 18.9558 76.1681 18.8569C76.1052 18.4835 75.9972 17.484 75.9792 17.1874C75.9612 16.8909 75.9792 15.4081 75.9792 15.1775C75.9792 14.9468 75.9792 14.5843 75.9792 14.3317C75.9792 14.0791 75.9792 13.8704 75.9792 13.5519C75.9792 13.2334 75.9792 12.5854 75.9792 12.146C75.9792 12.0582 75.9792 11.9264 75.9792 11.7616C75.9792 11.3552 76.0512 10.85 76.0872 10.6633C76.1681 10.0811 76.2581 9.56491 76.3211 9.29032C76.4502 8.69769 76.694 8.15154 77.0319 7.69772C77.3651 7.18503 77.8373 6.83447 78.3635 6.70921C78.5146 6.67164 78.6681 6.6496 78.8223 6.64331L79.0383 6.68724ZM79.785 20.9657C80.1146 20.758 80.3706 20.4103 80.5048 19.9882C80.6711 19.5715 80.7978 19.133 80.8827 18.6812V18.6263C80.8827 18.4725 80.9997 17.6268 81.0087 17.5279C81.0087 17.0117 81.0087 16.2099 81.0087 15.9024V15.7815C81.0087 15.5619 81.0087 14.4965 81.0087 14.3537C81.0087 14.2109 81.0087 14.1121 81.0087 13.8924C81.0101 13.2686 80.9831 12.6453 80.9277 12.0252C80.8853 11.4831 80.8193 10.9441 80.7297 10.4106V10.3118C80.611 9.78078 80.4356 9.27116 80.2079 8.79607C80.0945 8.60938 79.9542 8.44937 79.794 8.32378C79.6345 8.19679 79.4526 8.11775 79.2632 8.09313C79.1732 8.09313 79.0832 8.09313 78.9843 8.09313C78.8735 8.08166 78.7621 8.08166 78.6514 8.09313C78.3354 8.14731 78.0487 8.3479 77.8506 8.65328C77.6475 8.93639 77.4971 9.26989 77.4098 9.63081C77.4098 9.76261 77.3108 10.1251 77.2028 10.8829C77.2028 11.0696 77.1308 11.5968 77.1038 11.9813C77.1038 12.135 77.1038 12.2778 77.1038 12.3767C77.0863 12.7974 77.0863 13.219 77.1038 13.6398C77.1038 13.9803 77.1038 14.2329 77.1038 14.4635C77.1038 14.6942 77.1038 15.0127 77.1038 15.2434C77.1038 15.474 77.1038 16.8579 77.1038 17.0996C77.1038 17.3412 77.2118 18.2638 77.2658 18.5933C77.2778 18.7009 77.2958 18.8073 77.3198 18.9118C77.3198 19.0107 77.3198 19.1095 77.3828 19.1864C77.4903 19.623 77.6319 20.046 77.8056 20.4495C77.8895 20.6102 77.9892 20.7578 78.1025 20.8889C78.2645 21.0641 78.4591 21.1885 78.6694 21.2513C78.8338 21.2739 78.9998 21.2739 79.1642 21.2513C79.3841 21.2253 79.5963 21.1389 79.785 20.9987V20.9657Z" fill="#4A4640"/>
<path d="M86.1555 6.70874H86.4164C86.7979 6.72534 87.167 6.87808 87.4781 7.14807C87.7687 7.36956 88.0222 7.65657 88.2249 7.99378C88.3457 8.2093 88.451 8.43713 88.5398 8.67474C88.6535 8.94578 88.7468 9.22884 88.8187 9.52045C88.8187 9.52045 88.8997 9.80601 88.8997 9.82798C88.902 9.87919 88.902 9.93053 88.8997 9.98174C88.9806 10.3771 89.0976 11.3876 89.1336 11.805C89.2056 12.6397 89.2146 13.3646 89.2236 13.7929C89.2172 13.899 89.2172 14.0054 89.2236 14.1114C89.2236 14.3531 89.2236 15.5722 89.2236 15.737V15.8578C89.2236 16.1653 89.2236 16.9561 89.1696 17.5272C89.1696 17.7249 89.0346 18.7793 89.0166 18.8782V18.9551C88.9189 19.539 88.7649 20.1068 88.5578 20.6465C88.3078 21.2543 87.9365 21.7755 87.4781 22.1622C87.0773 22.4528 86.6216 22.6117 86.1555 22.6235C85.9073 22.6153 85.6603 22.5785 85.4177 22.5136C85.0584 22.3998 84.7258 22.1854 84.446 21.8876C84.2135 21.6522 84.0157 21.3698 83.8612 21.0529C83.6337 20.5326 83.4527 19.9839 83.3214 19.4164V19.2296C83.2883 19.111 83.2612 18.9899 83.2404 18.8672C83.1864 18.4938 83.0694 17.5053 83.0515 17.1977C83.0335 16.8902 83.0515 15.4185 83.0515 15.1988C83.0515 14.9791 83.0515 14.6057 83.0515 14.3531C83.0515 14.1005 83.0515 13.8918 83.0515 13.5733C83.0476 13.1038 83.0656 12.6344 83.1054 12.1674C83.1054 12.0795 83.1054 11.9368 83.1054 11.783C83.1054 11.3766 83.1864 10.8604 83.2224 10.6188C83.3034 10.0476 83.3844 9.52045 83.4563 9.25685C83.5781 8.69825 83.8062 8.18268 84.1221 7.75215C84.4614 7.23724 84.9399 6.88678 85.4717 6.76365C85.6229 6.72608 85.7764 6.70404 85.9306 6.69775L86.1555 6.70874ZM86.9113 20.987C87.2369 20.7763 87.4893 20.4292 87.6221 20.0094C87.7896 19.5857 87.9164 19.1398 87.9999 18.6805V18.6146C87.9999 18.4608 88.1169 17.6261 88.1259 17.5163C88.1259 17 88.1259 16.1873 88.1259 15.8907V15.7589C88.1259 15.5503 88.1259 14.4849 88.1259 14.3421C88.1259 14.1993 88.1259 14.1005 88.1259 13.8698C88.1259 13.4634 88.1259 12.7715 88.0449 12.0027C88.0003 11.4639 87.9312 10.9286 87.838 10.3991C87.838 10.3991 87.838 10.3222 87.838 10.2893C87.7169 9.76799 87.5447 9.26646 87.3251 8.79555C87.2117 8.60887 87.0715 8.44886 86.9113 8.32327C86.7498 8.20299 86.5685 8.12796 86.3804 8.10361H85.7776C85.4624 8.16901 85.1758 8.36721 84.9679 8.66375C84.7656 8.95006 84.6181 9.28772 84.536 9.65225C84.4436 10.0603 84.3715 10.4747 84.3201 10.8934C84.3201 11.0911 84.2481 11.6182 84.2211 11.9917C84.2211 12.1564 84.2211 12.2992 84.2211 12.3871C84.2211 12.7715 84.2211 13.3097 84.2211 13.6611C84.2211 14.0126 84.2211 14.2542 84.2211 14.4849C84.2211 14.7155 84.2211 15.034 84.2211 15.2647C84.2211 15.4953 84.2211 16.8792 84.2211 17.1209C84.2211 17.3625 84.3291 18.2851 84.383 18.6146C84.383 18.6146 84.383 18.8562 84.437 18.9221C84.491 18.988 84.437 19.1308 84.5 19.1967C84.6106 19.6371 84.7552 20.0637 84.9319 20.4707C85.0101 20.6333 85.1071 20.7812 85.2198 20.9101C85.3841 21.0813 85.5778 21.2051 85.7866 21.2725C85.9511 21.2947 86.117 21.2947 86.2815 21.2725C86.5035 21.2425 86.718 21.1565 86.9113 21.0199V20.987Z" fill="#4A4640"/>
<path d="M72.4885 14.5513C72.3895 14.5513 72.3625 14.5513 72.3625 14.6282C72.3625 14.9028 72.3625 15.1554 72.3625 15.43C72.3625 15.9791 72.3625 16.3306 72.3625 16.8798C72.3625 17.4289 72.3625 17.6486 72.3625 18.4394C72.3625 18.692 72.4165 20.0869 72.3625 20.4054C72.3085 20.724 72.3625 20.9546 72.3625 21.1962C72.3625 21.4379 72.3625 21.7564 72.3625 21.9102C72.3625 22.0639 72.4165 22.2616 72.3625 22.4923C72.3085 22.7229 72.2815 22.4923 72.2006 22.5911C72.1196 22.69 71.4178 22.5911 71.3728 22.5911C71.3278 22.5911 71.3728 21.8882 71.3728 21.7125C71.3728 21.5367 71.3728 21.0095 71.3728 20.3725C71.3728 20.2736 71.3728 20.032 71.3728 19.5927C71.3728 19.351 71.3728 18.8897 71.3728 18.4943C71.3728 18.0989 71.3728 17.9891 71.3728 17.396C71.3728 17.2642 71.3728 16.2977 71.3728 16.1219C71.3728 15.6826 71.3728 15.2433 71.3728 14.8039C71.3863 14.5699 71.3863 14.335 71.3728 14.101V12.805C71.3592 12.5196 71.3592 12.2336 71.3728 11.9483C71.3859 11.6702 71.3859 11.3915 71.3728 11.1135C71.3865 10.9418 71.3865 10.769 71.3728 10.5973C71.3728 10.0701 71.3188 8.92783 71.3188 8.89488C71.3728 8.54341 71.3188 8.18096 71.3908 7.79654C71.4158 7.54526 71.4994 7.30806 71.6319 7.11328C71.7643 6.91851 71.9399 6.77441 72.1376 6.6982C72.4132 6.62404 72.6987 6.62404 72.9743 6.6982C73.3307 6.78876 73.6621 6.98916 73.937 7.28032C74.081 7.44507 74.189 7.63179 74.3329 7.79654C74.48 8.01473 74.5929 8.26421 74.6658 8.53243C74.7198 8.68619 74.7468 8.83996 74.7918 9.00471C74.8824 9.36026 74.9279 9.73067 74.9267 10.103C74.9356 10.5533 74.8839 11.0022 74.7738 11.432C74.6804 11.878 74.5318 12.304 74.3329 12.6951L74.1979 12.9477C74.027 13.1784 74.018 13.3212 73.8381 13.5299C73.6581 13.7385 73.4242 14.0131 73.4512 14.0571C73.5412 14.5952 73.7661 14.9577 73.874 15.5069C73.982 16.056 74.18 16.6711 74.3059 17.2642C74.4319 17.8573 74.5218 18.088 74.6838 18.8019C74.8013 19.2458 74.9004 19.6967 74.9807 20.1528C75.0977 20.68 75.1786 21.0095 75.3136 21.5257C75.3963 21.7692 75.4362 22.0311 75.4306 22.2946C75.4306 22.5362 75.1067 22.4813 74.8727 22.4813C74.733 22.5134 74.5896 22.5134 74.4499 22.4813C74.2773 22.0757 74.1618 21.6376 74.108 21.1853C74.108 21.1853 73.6941 19.1863 73.5502 18.6042C73.4062 18.0221 73.1273 16.7919 73.0283 16.3306C72.9112 15.8181 72.767 15.3155 72.5965 14.8259C72.5425 14.76 72.5425 14.6941 72.4885 14.5513ZM72.3625 12.3546C72.3494 12.629 72.3494 12.904 72.3625 13.1784C72.3625 13.2992 72.4075 13.3322 72.4975 13.2882C72.6507 13.2116 72.7821 13.0817 72.8754 12.9148C73.1067 12.5492 73.3114 12.1597 73.4872 11.7506C73.6522 11.4134 73.7622 11.0404 73.8111 10.6522C73.8702 10.2897 73.8702 9.91643 73.8111 9.55388C73.7672 9.28707 73.675 9.03562 73.5412 8.81799C73.4403 8.64989 73.319 8.50172 73.1813 8.37866C73.0469 8.26342 72.8866 8.20201 72.7224 8.20292C72.6594 8.20292 72.4345 8.20292 72.3985 8.26882C72.3765 8.42511 72.3765 8.58483 72.3985 8.74111C72.3985 8.99373 72.3985 9.32323 72.3985 9.58683C72.4447 10.318 72.4447 11.0524 72.3985 11.7835C72.378 11.9876 72.366 12.1929 72.3625 12.3986V12.3546Z" fill="#4A4640"/>
<path d="M68.5386 10.4979C68.5386 11.2118 68.4486 17.088 68.4576 17.088C68.4666 17.088 68.4576 17.9776 68.4576 18.0106C68.4576 18.0435 68.4576 18.6916 68.4576 19.6032V21.4814C68.4576 21.5363 68.4576 21.8109 68.4576 22.1953C68.4623 22.2904 68.4623 22.3858 68.4576 22.4809C68.4666 22.5091 68.4666 22.5405 68.4576 22.5687C68.4576 22.5687 68.3586 22.5687 68.2327 22.5687H67.8818C67.4949 22.5687 67.4589 22.5687 67.4589 22.5687V21.7779C67.4589 21.4045 67.4589 20.8224 67.4589 20.4709C67.4589 20.1194 67.4589 19.5483 67.4589 19.1748C67.4589 19.1748 67.5219 18.1534 67.5309 17.6372C67.5309 17.5383 67.5309 17.4285 67.5309 17.3186C67.5309 16.8134 67.5309 16.3191 67.5309 15.8139C67.5309 15.3087 67.5309 15.0451 67.5309 14.6167C67.5309 14.1884 67.5309 13.8369 67.5309 13.4525C67.5309 13.3097 67.5309 13.1669 67.5309 13.0351C67.5309 12.5957 67.5309 12.0356 67.5309 11.6072C67.5309 11.4425 67.5309 11.2777 67.5309 11.113C67.5309 10.7066 67.5309 10.3002 67.5309 9.89382C67.5309 9.81693 67.5309 9.47644 67.5309 9.27874C67.5534 8.91314 67.5534 8.54599 67.5309 8.18039C67.37 8.14898 67.206 8.14898 67.045 8.18039C66.7751 8.18039 66.6582 8.18039 66.2623 8.18039C66.0625 8.21831 65.8592 8.21831 65.6595 8.18039C65.6442 7.95745 65.6442 7.73335 65.6595 7.5104C65.6272 7.29619 65.6272 7.07659 65.6595 6.86238C65.8203 6.8294 65.9845 6.8294 66.1453 6.86238C66.6222 6.86238 66.8561 6.86238 67.279 6.86238C67.7018 6.86238 68.0887 6.86238 68.5386 6.86238C68.9884 6.86238 69.3123 6.86238 69.6542 6.86238C69.7622 6.86238 70.0771 6.86238 70.5 6.86238C70.7609 6.86238 70.6259 6.99418 70.6619 7.26877C70.7041 7.55202 70.7041 7.84223 70.6619 8.12548C70.4973 8.19518 70.3231 8.22502 70.1491 8.21334C69.8252 8.21334 69.7262 8.21334 69.1954 8.21334H68.6915C68.6915 8.45498 68.6915 9.01514 68.6915 9.55333C68.5206 9.47644 68.5386 10.4979 68.5386 10.4979Z" fill="#4A4640"/>
<path d="M92.1836 10.4981C92.1836 11.2121 92.0936 17.0882 92.1026 17.0882C92.1116 17.0882 92.1026 17.9779 92.1026 18.0108C92.1026 18.0438 92.1026 18.6918 92.1026 19.6034V21.4816C92.1026 21.5365 92.1026 21.8111 92.1026 22.1955C92.1074 22.2906 92.1074 22.386 92.1026 22.4811C92.1117 22.5094 92.1117 22.5407 92.1026 22.569C92.1026 22.569 92.0037 22.569 91.8777 22.569H91.5268C91.1399 22.569 91.1039 22.569 91.1039 22.569V20.4382C91.1039 20.0647 91.1039 19.5156 91.1039 19.1421C91.1039 19.1421 91.1669 18.1207 91.1759 17.6044C91.1759 17.5056 91.1759 17.3958 91.1759 17.2859C91.1759 16.7807 91.1759 16.2864 91.1759 15.7812C91.1759 15.2759 91.1759 15.0123 91.1759 14.584C91.1759 14.1556 91.1759 13.8042 91.1759 13.4197C91.1759 13.277 91.1759 13.1342 91.1759 13.0024C91.1759 12.563 91.1759 12.0029 91.1759 11.5745C91.1759 11.4098 91.1759 11.245 91.1759 11.0803C91.1759 10.6739 91.1759 10.2675 91.1759 9.8611C91.1759 9.78422 91.1759 9.44373 91.1759 9.24603C91.1985 8.88043 91.1985 8.51328 91.1759 8.14768C91.015 8.11627 90.851 8.11627 90.6901 8.14768C90.4201 8.14768 90.3032 8.14768 89.9073 8.14768C89.7076 8.1856 89.5042 8.1856 89.3045 8.14768C89.2893 7.92474 89.2893 7.70063 89.3045 7.47769C89.2722 7.26348 89.2722 7.04387 89.3045 6.82966C89.4653 6.79669 89.6295 6.79669 89.7903 6.82966C90.2672 6.82966 90.5011 6.82966 90.924 6.82966C91.3469 6.82966 91.7337 6.82966 92.1836 6.82966C92.6335 6.82966 92.9574 6.82966 93.2992 6.82966C93.4072 6.82966 93.7311 6.82966 94.145 6.82966C94.4059 6.82966 94.2709 6.96147 94.3069 7.23605C94.3491 7.5193 94.3491 7.80951 94.3069 8.09276C94.1423 8.16246 93.9681 8.19231 93.7941 8.18063C93.4702 8.18063 93.3712 8.18063 92.8404 8.18063H92.3365C92.3365 8.42227 92.3365 8.98242 92.3365 9.52061C92.1746 9.47668 92.1836 10.4981 92.1836 10.4981Z" fill="#4A4640"/>
</svg>
