<svg width="622" height="234" viewBox="0 0 622 234" fill="none" xmlns="http://www.w3.org/2000/svg">
<path d="M125.781 136.855C125.326 146.751 122.656 155.508 117.773 163.125C112.891 170.677 106.022 176.536 97.168 180.703C88.3789 184.87 78.3203 186.953 66.9922 186.953C48.3073 186.953 33.5938 180.866 22.8516 168.691C12.1094 156.517 6.73828 139.329 6.73828 117.129V110.098C6.73828 96.1654 9.14714 83.9909 13.9648 73.5742C18.8477 63.0924 25.8464 55.0195 34.9609 49.3555C44.0755 43.6263 54.6224 40.7617 66.6016 40.7617C83.8542 40.7617 97.7214 45.319 108.203 54.4336C118.685 63.4831 124.642 75.9831 126.074 91.9336H91.8945C91.6341 83.2747 89.4531 77.0573 85.3516 73.2812C81.25 69.5052 75 67.6172 66.6016 67.6172C58.0729 67.6172 51.8229 70.8073 47.8516 77.1875C43.8802 83.5677 41.7969 93.7565 41.6016 107.754V117.812C41.6016 132.982 43.4896 143.822 47.2656 150.332C51.1068 156.842 57.6823 160.098 66.9922 160.098C74.8698 160.098 80.8919 158.242 85.0586 154.531C89.2253 150.82 91.4388 144.928 91.6992 136.855H125.781ZM194.824 134.805H176.27V185H141.992V42.8125H197.949C214.811 42.8125 227.995 46.556 237.5 54.043C247.005 61.5299 251.758 72.1094 251.758 85.7812C251.758 95.6771 249.74 103.88 245.703 110.391C241.732 116.901 235.482 122.174 226.953 126.211L256.641 183.535V185H219.922L194.824 134.805ZM176.27 108.34H197.949C204.46 108.34 209.342 106.647 212.598 103.262C215.918 99.8112 217.578 95.026 217.578 88.9062C217.578 82.7865 215.918 78.0013 212.598 74.5508C209.277 71.0352 204.395 69.2773 197.949 69.2773H176.27V108.34ZM313.184 138.906L330.762 79.3359H366.016L322.949 202.676L321.094 207.168C314.974 220.84 304.167 227.676 288.672 227.676C284.375 227.676 279.85 227.025 275.098 225.723V202.188H279.395C284.017 202.188 287.533 201.504 289.941 200.137C292.415 198.835 294.238 196.458 295.41 193.008L298.047 185.977L261.328 79.3359H296.484L313.184 138.906ZM410.449 136.758V185H376.172V42.8125H432.91C443.783 42.8125 453.385 44.8307 461.719 48.8672C470.117 52.8385 476.595 58.5352 481.152 65.957C485.775 73.3138 488.086 81.6797 488.086 91.0547C488.086 104.922 483.105 116.022 473.145 124.355C463.249 132.624 449.642 136.758 432.324 136.758H410.449ZM410.449 110.293H432.91C439.551 110.293 444.596 108.633 448.047 105.312C451.562 101.992 453.32 97.3047 453.32 91.25C453.32 84.6094 451.53 79.3034 447.949 75.332C444.368 71.3607 439.486 69.3424 433.301 69.2773H410.449V110.293ZM618.066 69.2773H575.391V185H541.113V69.2773H499.219V42.8125H618.066V69.2773Z" fill="#FFFCFC"/>
</svg>
