<svg width="114" height="87" viewBox="0 0 114 87" fill="none" xmlns="http://www.w3.org/2000/svg">
<path d="M87.4233 87C79.8078 87 73.5133 84.5898 68.5399 79.7694C63.5665 74.9491 61.0798 68.6515 61.0798 60.8767C61.0798 57.3003 61.546 53.7239 62.4785 50.1475C63.411 46.571 65.4315 41.2064 68.5399 34.0536L83.4601 1.02993e-05L111.202 7.87396e-06L100.245 38.0188C104.597 40.0402 108.016 42.9946 110.503 46.882C112.834 50.9249 114 55.5898 114 60.8767C114 68.6515 111.513 74.9491 106.54 79.7694C101.566 84.5898 95.1943 87 87.4233 87ZM26.3436 87C18.728 87 12.4335 84.5898 7.46012 79.7694C2.4867 74.9491 -9.23347e-06 68.6515 -9.91317e-06 60.8767C-1.02258e-05 57.3003 0.466252 53.7239 1.39876 50.1475C2.33128 46.5711 4.35173 41.2065 7.46012 34.0536L22.3804 1.5639e-05L50.1227 1.32137e-05L39.1656 38.0188C43.5174 40.0402 46.9366 42.9946 49.4233 46.882C51.7546 50.9249 52.9202 55.5898 52.9202 60.8767C52.9202 68.6515 50.4335 74.9491 45.4601 79.7694C40.4867 84.5898 34.1145 87 26.3436 87Z" fill="#EA4747"/>
</svg>
